<svg xmlns="http://www.w3.org/2000/svg" width="640" height="512" viewBox="0 0 640 512">
  <rect width="640" height="512" fill="none"/>
  <path d="M132 406h376v24H132z" fill="#b99971"/>
  <path d="M166 382h308v28H166z" fill="#d7b687"/>
  <path d="M188 354h116l34 56H154z" fill="#8f6744"/>
  <path d="M200 326h88v36h-88z" fill="#7a5538"/>
  <path d="M210 392h18v82h-18zM264 392h18v82h-18z" fill="#704e35"/>
  <path d="M180 430h122v12H180zM180 456h122v12H180z" fill="#8a623f"/>
  <path d="M396 392h84v20h-84z" fill="#8b6540"/>
  <path d="M408 366h58v28h-58z" fill="#775336"/>
  <path d="M430 338h16v34h-16z" fill="#62442d"/>
  <g fill="#7d9f59">
    <ellipse cx="142" cy="394" rx="30" ry="18"/>
    <ellipse cx="188" cy="400" rx="28" ry="16"/>
    <ellipse cx="454" cy="398" rx="30" ry="18"/>
    <ellipse cx="500" cy="394" rx="28" ry="16"/>
  </g>
  <g fill="#d88962">
    <circle cx="156" cy="422" r="7"/>
    <circle cx="180" cy="428" r="6"/>
    <circle cx="444" cy="422" r="7"/>
    <circle cx="468" cy="428" r="6"/>
  </g>
  <g fill="#f0e3cb" opacity="0.7">
    <circle cx="242" cy="428" r="8"/>
    <circle cx="262" cy="438" r="7"/>
    <circle cx="416" cy="430" r="7"/>
  </g>
</svg>
