<svg xmlns="http://www.w3.org/2000/svg" width="640" height="640" viewBox="0 0 640 640">
  <rect width="640" height="640" fill="none"/>
  <path d="M148 320L322 188l182 126-24 40-156-108-146 108z" fill="#6d3411"/>
  <path d="M166 278L322 166l166 110-16 44-148-100-138 100z" fill="#b5632f"/>
  <path d="M170 274l42-10h216l40 12-14 18H182z" fill="#95451c"/>
  <path d="M370 206h96l42 46-26 34H356z" fill="#6b3414"/>
  <path d="M284 300h80l26 28v42H258v-42z" fill="#7f4a24" opacity="0.25"/>
  <path d="M376 150h48v126h-48z" fill="#a98d74"/>
  <path d="M368 128h64v28h-64z" fill="#b9926b"/>
  <path d="M390 98c20 14 24 30 24 46h-36c0-18 4-32 12-46z" fill="#d6cec4"/>
</svg>
