<svg xmlns="http://www.w3.org/2000/svg" width="640" height="480" viewBox="0 0 640 480">
  <rect width="640" height="480" fill="none"/>
  <ellipse cx="320" cy="394" rx="206" ry="42" fill="#000" opacity="0.14"/>
  <ellipse cx="320" cy="376" rx="214" ry="50" fill="#8fa86a"/>
  <path d="M144 368h352v16H144z" fill="#d6c4a7"/>
  <path d="M248 324h144l36 60H212z" fill="#c7b293"/>
  <path d="M274 342h92l16 30H258z" fill="#b79266"/>
  <path d="M122 342h48v26h-48zM472 342h48v26h-48z" fill="#82a45f"/>
  <g fill="#e7d7b3" opacity="0.8">
    <circle cx="198" cy="390" r="12"/>
    <circle cx="224" cy="400" r="10"/>
    <circle cx="438" cy="392" r="12"/>
    <circle cx="412" cy="400" r="10"/>
  </g>
  <g fill="#7b9b58" opacity="0.85">
    <ellipse cx="188" cy="350" rx="26" ry="16"/>
    <ellipse cx="448" cy="352" rx="26" ry="16"/>
  </g>
  <g fill="#d67c5c" opacity="0.86">
    <circle cx="180" cy="374" r="6"/>
    <circle cx="204" cy="380" r="5"/>
    <circle cx="430" cy="374" r="6"/>
    <circle cx="454" cy="380" r="5"/>
  </g>
</svg>
