<svg xmlns="http://www.w3.org/2000/svg" width="640" height="640" viewBox="0 0 640 640">
  <rect width="640" height="640" fill="none"/>
  <path d="M160 560h316V316L160 372z" fill="#dcc8af"/>
  <path d="M188 560h266V340L188 386z" fill="#ecdcc5"/>
  <path d="M162 560h22V372h-22z" fill="#785436"/>
  <path d="M472 560h24V318h-24z" fill="#896443"/>
  <path d="M228 420h84v94h-84z" fill="#88613f"/>
  <path d="M238 432h64v70h-64z" fill="#84b6c1"/>
  <path d="M338 392h74v88h-74z" fill="#8a6440"/>
  <path d="M348 404h54v64h-54z" fill="#86b7c2"/>
  <path d="M210 344h10v216h-10zM264 334h10v226h-10zM318 326h10v234h-10zM372 334h10v226h-10zM426 344h10v216h-10z" fill="#7c593a" opacity="0.82"/>
  <path d="M188 560h268v18H188z" fill="#bb9870"/>
  <path d="M206 578h232v12H206z" fill="#8a6748"/>
</svg>
