<svg xmlns="http://www.w3.org/2000/svg" width="640" height="640" viewBox="0 0 640 640">
  <rect width="640" height="640" fill="none"/>
  <path d="M120 564h400V390L320 246 120 394z" fill="#e7d7bf"/>
  <path d="M156 564h328V416L320 298 156 420z" fill="#f1e4cf"/>
  <path d="M250 564h140V450L320 398 250 452z" fill="#774f35"/>
  <path d="M264 564h112V466L320 424 264 468z" fill="#82583b"/>
  <path d="M298 454h44v42h-44z" fill="#86b6c0"/>
  <circle cx="332" cy="510" r="5" fill="#cca86a"/>
  <path d="M188 438h52v76h-52z" fill="#855c3c"/>
  <path d="M196 446h36v58h-36z" fill="#84b7c2"/>
  <path d="M400 438h52v76h-52z" fill="#855c3c"/>
  <path d="M408 446h36v58h-36z" fill="#84b7c2"/>
  <path d="M262 336h116v66H262z" fill="#eadcc7"/>
  <path d="M280 350h80v48h-80z" fill="#f4e7d4"/>
  <path d="M300 356h40v34h-40z" fill="#85b4bf"/>
  <path d="M246 334h12v70h-12zM382 334h12v70h-12z" fill="#765237"/>
  <path d="M236 404h170v20H236z" fill="#be996d"/>
  <path d="M168 562h304v18H168z" fill="#bb9870"/>
  <path d="M184 578h272v14H184z" fill="#8a6748"/>
  <g fill="#775338">
    <path d="M148 402h18v160h-18z"/>
    <path d="M474 402h18v160h-18z"/>
    <path d="M120 472h400v16H120z"/>
  </g>
  <g fill="#d3b282" opacity="0.74">
    <path d="M272 532h96v14h-96z"/>
    <path d="M286 548h68v12h-68z"/>
  </g>
</svg>
