<svg xmlns="http://www.w3.org/2000/svg" width="512" height="512" viewBox="0 0 512 512">
  <g>
    <ellipse cx="256" cy="438" rx="160" ry="34" fill="#000" opacity="0.12"/>
    <ellipse cx="256" cy="420" rx="154" ry="36" fill="#b8c4a1"/>
    <path d="M142 398h228v16H142z" fill="#d5c8b1"/>
    <path d="M158 240h198v126H158z" fill="#d8e2ed"/>
    <path d="M182 212h150v38H182z" fill="#6b7b95"/>
    <path d="M170 220h174l18 18H152z" fill="#87a0bf"/>
    <path d="M194 250h32v70h-32zM240 250h32v70h-32zM286 250h32v70h-32z" fill="#6d96b8"/>
    <path d="M226 320h60v46h-60z" fill="#805d42"/>
    <path d="M214 338h84v18h-84z" fill="#d8c1a1"/>
    <path d="M238 164h36v56h-36z" fill="#d9e5ef"/>
    <path d="M230 152h52v18h-52z" fill="#8cb1d6"/>
    <path d="M252 132c12 8 15 18 15 30h-28c0-12 4-22 13-30z" fill="#9dc8ff"/>
    <path d="M116 332h74v42h-74z" fill="#98846e"/>
    <path d="M124 340h58v26h-58z" fill="#6f7278"/>
    <path d="M330 334h56v52h-56z" fill="#8b7f72"/>
    <path d="M338 342h40v36h-40z" fill="#6e7176"/>
    <circle cx="138" cy="392" r="18" fill="#88a05f"/>
    <circle cx="376" cy="396" r="18" fill="#88a05f"/>
    <rect x="208" y="220" width="96" height="12" rx="6" fill="#f5f0e6"/>
    <rect x="226" y="178" width="60" height="12" rx="4" fill="#f5f0e6"/>
  </g>
</svg>
