<svg xmlns="http://www.w3.org/2000/svg" width="512" height="512" viewBox="0 0 512 512">
  <g>
    <ellipse cx="256" cy="438" rx="154" ry="34" fill="#000" opacity="0.12"/>
    <ellipse cx="256" cy="420" rx="148" ry="36" fill="#c4bd94"/>
    <path d="M140 400h232v14H140z" fill="#d8c7af"/>
    <path d="M170 240h170v108H170z" fill="#eadbc8"/>
    <path d="M160 224h190l18 18H150z" fill="#b26d4d"/>
    <path d="M182 252h146v54H182z" fill="#7eb6cd"/>
    <path d="M176 306h158v26H176z" fill="#e2855c"/>
    <path d="M200 350h22v18h-22zM290 350h22v18h-22z" fill="#8b6545"/>
    <circle cx="210" cy="392" r="14" fill="#d9ccb7"/>
    <circle cx="302" cy="392" r="14" fill="#d9ccb7"/>
    <path d="M206 376h8v16h-8zM298 376h8v16h-8z" fill="#8b6545"/>
    <circle cx="150" cy="398" r="18" fill="#87a35d"/>
    <circle cx="360" cy="398" r="18" fill="#87a35d"/>
    <rect x="210" y="214" width="92" height="14" rx="5" fill="#fff3e5"/>
  </g>
</svg>
