<svg xmlns="http://www.w3.org/2000/svg" width="256" height="256" viewBox="0 0 256 256">
  <rect width="256" height="256" fill="#9ebd73"/>
  <path d="M0 172c36-12 62-12 96 0s60 12 96 0 42-12 64-6v90H0z" fill="#8dac67" opacity="0.56"/>
  <path d="M0 64c30 8 56 8 90 0s58-8 92 0 48 8 74 0v34c-28 8-54 8-86 0s-56-8-88 0-54 8-82 0z" fill="#b2cb85" opacity="0.34"/>
  <g opacity="0.55" fill="#79995b">
    <path d="M42 80l6-13 5 13h-4l-1 9h-2l-1-9z"/>
    <path d="M188 56l6-12 4 12h-3l-1 8h-2l-1-8z"/>
    <path d="M140 188l7-14 5 14h-4l-1 10h-2l-1-10z"/>
    <path d="M84 210l6-12 4 12h-3l-1 8h-2l-1-8z"/>
  </g>
  <g opacity="0.28" fill="#d7e9a7">
    <circle cx="72" cy="132" r="8"/>
    <circle cx="194" cy="166" r="7"/>
    <circle cx="118" cy="44" r="6"/>
  </g>
</svg>
