<svg xmlns="http://www.w3.org/2000/svg" width="256" height="256" viewBox="0 0 256 256">
  <rect width="256" height="256" fill="none"/>
  <path d="M20 0h216c10 0 18 8 18 18v220c0 10-8 18-18 18H20c-10 0-18-8-18-18V18C2 8 10 0 20 0z" fill="#8e7859" opacity="0.14"/>
  <path d="M32 0h192c8 0 14 8 14 14v228c0 8-6 14-14 14H32c-8 0-14-6-14-14V14c0-6 6-14 14-14z" fill="#876949" opacity="0.26"/>
  <path d="M42 0h172c8 0 12 8 12 14v228c0 8-4 14-12 14H42c-8 0-12-6-12-14V14c0-6 4-14 12-14z" fill="#6f5844"/>
  <path d="M56 0h144v256H56z" fill="#5e4c3e"/>
  <path d="M70 0h116v256H70z" fill="#6d5a48" opacity="0.36"/>
  <g fill="#ceb98e" opacity="0.15">
    <circle cx="92" cy="30" r="5"/>
    <circle cx="166" cy="58" r="5"/>
    <circle cx="102" cy="100" r="4"/>
    <circle cx="154" cy="138" r="5"/>
    <circle cx="96" cy="184" r="5"/>
    <circle cx="160" cy="218" r="4"/>
  </g>
</svg>
