<svg xmlns="http://www.w3.org/2000/svg" width="256" height="256" viewBox="0 0 256 256">
  <rect width="256" height="256" fill="none"/>
  <path d="M0 0h232c12 0 20 8 20 20v116H136c-26 0-48 22-48 48v72H20c-12 0-20-8-20-20V0z" fill="#8d7758" opacity="0.14"/>
  <path d="M0 0h220c10 0 16 8 16 16v110H132c-30 0-54 24-54 54v76H16c-8 0-16-8-16-16V0z" fill="#866949" opacity="0.26"/>
  <path d="M0 0h206c8 0 14 8 14 14v100H128c-34 0-62 28-62 62v80H0V0z" fill="#6f5844"/>
  <path d="M0 0h190c8 0 12 8 12 12v92H124c-38 0-68 30-68 68v84H0V0z" fill="#5f4c3d"/>
  <path d="M72 256v-76c0-30 24-54 54-54h110v18H132c-22 0-40 18-40 40v72z" fill="#c4ad82" opacity="0.22"/>
  <g fill="#d0bb90" opacity="0.14">
    <circle cx="168" cy="36" r="5"/>
    <circle cx="132" cy="70" r="5"/>
    <circle cx="74" cy="182" r="5"/>
    <circle cx="46" cy="212" r="4"/>
  </g>
</svg>
